<svg version="1" xmlns="http://www.w3.org/2000/svg" width="1096" height="1096" viewBox="0 0 822.000000 822.000000"><path d="M631.5 2.6c-17 2.6-41.5 11.2-53.2 18.6-2.6 1.7-7.1 4.6-10 6.4-14.2 9.1-32 27.3-42.8 43.8-10.5 16.1-20.6 41.8-23 58.6-.2 1.4-.6 4.1-.9 6-.7 4.1-1.5 13.9-1.5 19.2l-.1 3.7-11.2-4.1c-24.1-8.7-51.8-15.4-75.3-18.3-2.7-.4-6.1-.8-7.5-1.1-11.1-1.8-52.1-2.5-68-1.1-13.4 1.2-18.1 1.8-24 2.8-3 .5-7.3 1.1-9.5 1.5-6.3.9-29.3 6.1-37 8.4-3.8 1.1-7.7 2.2-8.5 2.5-18.7 5.1-59.7 23.6-77.5 35-13.2 8.4-18.4 11.9-28.2 19.2-35.5 26.1-66.8 60.6-89.7 98.6-8.6 14.2-17.7 32.1-22.6 44.2-1.8 4.4-3.8 9.3-4.5 11-1.2 2.9-7.7 22-8.1 24-.1.5-1.4 5.3-2.8 10.5-2.3 8.8-4.7 19.7-6.1 28-.3 1.9-.8 4.2-1 5-.6 2.2-1.7 12.8-3 28.5-1.3 15.5-.7 51.4.9 60.1.2 1 .7 4.4 1 7.5.4 3.1.9 6.7 1.1 8 .3 1.3.7 3.8 1 5.6 2.3 17.2 10.3 45.8 19.2 68.3 19.4 49.1 53.6 97.3 93.3 131.2 14.5 12.5 13.9 12 24.2 19.5 35 25.7 72.6 43.6 117.8 56.3 6.1 1.8 24.2 5.6 30.5 6.6 1.1.1 3.6.5 5.5.8 17 2.9 32.2 4 56 4 17.6 0 32.3-.6 42-1.9 13.3-1.7 16.2-2.1 28.5-4.6 22.2-4.4 49.9-12.8 66.2-20 2.3-1.1 4.5-1.9 4.8-1.9 1.4 0 28.8-13.9 37.6-19 29.1-17.2 47.9-31.8 72.9-56.9 37.5-37.6 64.1-79.9 81.3-129.6 3.1-9 8.3-26.9 9.3-32 .2-1.1.6-3.1.9-4.5 1.3-5.9 3.4-16.8 4-21 .3-2.5.8-5.9 1.1-7.5 1.1-7.6 1.4-10.8 2.1-21.5 1.2-19.4.7-44-1.3-62.5-.5-4.4-4.2-26.6-5.9-35-2.7-13.1-12.5-44.1-17.4-55-.5-1.1-2.4-5.4-4.2-9.5-1.9-4.1-5.3-11.3-7.7-15.9-2.3-4.6-4.1-8.5-4-8.7.2-.2 1.7-.5 3.3-.8 14.1-2.6 28.8-7.3 40.5-13 8.3-4.1 16.4-8.8 16.8-9.8.2-.4.8-.8 1.4-.8.6 0 4.5-2.7 8.7-6.1 25.4-20.2 43.2-45.1 53-74.4 1.6-5 3.2-10.1 3.5-11.5.2-1.4.9-4.5 1.4-7 .6-2.5 1.3-6.4 1.6-8.8.3-2.3.8-5.9 1.1-8 1.2-8.7.6-32.2-1.1-40.6-.2-1.2-.9-4.7-1.4-7.9-3.7-19.9-18.3-51.6-29.9-64.6-1.1-1.3-2.1-2.7-2.1-3 0-.3-3.3-4-7.3-8.2C741.8 24.7 712.6 8.9 679 3c-9.8-1.8-37-2-47.5-.4z"/></svg>